<mxfile host="app.diagrams.net" modified="2024-07-26T16:00:41.518Z" agent="Mozilla/5.0 (Windows NT 10.0; Win64; x64) AppleWebKit/537.36 (KHTML, like Gecko) Chrome/122.0.0.0 Safari/537.36" etag="XEySUAzRAkLECRiL_79B" version="24.7.1" type="google">
  <diagram name="Page-1" id="b5b7bab2-c9e2-2cf4-8b2a-24fd1a2a6d21">
    <mxGraphModel dx="1323" dy="700" grid="1" gridSize="10" guides="1" tooltips="1" connect="1" arrows="1" fold="1" page="1" pageScale="1" pageWidth="827" pageHeight="1169" background="none" math="0" shadow="0">
      <root>
        <mxCell id="0" />
        <mxCell id="1" parent="0" />
        <mxCell id="7CAKG3eBf-L-qqWDLFY9-3" value="Presentation Layer" style="shape=module;align=left;spacingLeft=20;align=center;verticalAlign=top;whiteSpace=wrap;html=1;" vertex="1" parent="1">
          <mxGeometry x="149" y="140" width="530" height="200" as="geometry" />
        </mxCell>
        <mxCell id="7CAKG3eBf-L-qqWDLFY9-4" value="Controll layer" style="shape=module;align=left;spacingLeft=20;align=center;verticalAlign=top;whiteSpace=wrap;html=1;" vertex="1" parent="1">
          <mxGeometry x="149" y="370" width="530" height="200" as="geometry" />
        </mxCell>
        <mxCell id="7CAKG3eBf-L-qqWDLFY9-5" value="Data layer" style="shape=module;align=left;spacingLeft=20;align=center;verticalAlign=top;whiteSpace=wrap;html=1;" vertex="1" parent="1">
          <mxGeometry x="149" y="600" width="530" height="200" as="geometry" />
        </mxCell>
        <mxCell id="7CAKG3eBf-L-qqWDLFY9-6" value="&amp;lt;&amp;lt;Mongo&amp;gt;&amp;gt;&lt;div&gt;Data Base&lt;/div&gt;" style="html=1;dropTarget=0;whiteSpace=wrap;" vertex="1" parent="1">
          <mxGeometry x="324" y="655" width="180" height="90" as="geometry" />
        </mxCell>
        <mxCell id="7CAKG3eBf-L-qqWDLFY9-7" value="" style="shape=module;jettyWidth=8;jettyHeight=4;" vertex="1" parent="7CAKG3eBf-L-qqWDLFY9-6">
          <mxGeometry x="1" width="20" height="20" relative="1" as="geometry">
            <mxPoint x="-27" y="7" as="offset" />
          </mxGeometry>
        </mxCell>
        <mxCell id="7CAKG3eBf-L-qqWDLFY9-29" style="edgeStyle=orthogonalEdgeStyle;rounded=0;orthogonalLoop=1;jettySize=auto;html=1;exitX=0.5;exitY=1;exitDx=0;exitDy=0;endArrow=none;endFill=0;" edge="1" parent="1" source="7CAKG3eBf-L-qqWDLFY9-13" target="7CAKG3eBf-L-qqWDLFY9-6">
          <mxGeometry relative="1" as="geometry">
            <Array as="points">
              <mxPoint x="275" y="640" />
              <mxPoint x="414" y="640" />
            </Array>
          </mxGeometry>
        </mxCell>
        <mxCell id="7CAKG3eBf-L-qqWDLFY9-13" value="&amp;lt;&amp;lt;express&amp;gt;&amp;gt;&lt;div&gt;API&lt;/div&gt;" style="shape=module;align=left;spacingLeft=20;align=center;verticalAlign=top;whiteSpace=wrap;html=1;" vertex="1" parent="1">
          <mxGeometry x="180" y="410" width="190" height="140" as="geometry" />
        </mxCell>
        <mxCell id="7CAKG3eBf-L-qqWDLFY9-28" style="edgeStyle=orthogonalEdgeStyle;rounded=0;orthogonalLoop=1;jettySize=auto;html=1;exitX=0.5;exitY=1;exitDx=0;exitDy=0;endArrow=none;endFill=0;" edge="1" parent="1" source="7CAKG3eBf-L-qqWDLFY9-14" target="7CAKG3eBf-L-qqWDLFY9-16">
          <mxGeometry relative="1" as="geometry" />
        </mxCell>
        <mxCell id="7CAKG3eBf-L-qqWDLFY9-14" value="Routes" style="html=1;dropTarget=0;whiteSpace=wrap;" vertex="1" parent="1">
          <mxGeometry x="220" y="451" width="110" height="40" as="geometry" />
        </mxCell>
        <mxCell id="7CAKG3eBf-L-qqWDLFY9-15" value="" style="shape=module;jettyWidth=8;jettyHeight=4;" vertex="1" parent="7CAKG3eBf-L-qqWDLFY9-14">
          <mxGeometry x="1" width="20" height="20" relative="1" as="geometry">
            <mxPoint x="-27" y="7" as="offset" />
          </mxGeometry>
        </mxCell>
        <mxCell id="7CAKG3eBf-L-qqWDLFY9-16" value="Models" style="html=1;dropTarget=0;whiteSpace=wrap;" vertex="1" parent="1">
          <mxGeometry x="220" y="500" width="110" height="40" as="geometry" />
        </mxCell>
        <mxCell id="7CAKG3eBf-L-qqWDLFY9-17" value="" style="shape=module;jettyWidth=8;jettyHeight=4;" vertex="1" parent="7CAKG3eBf-L-qqWDLFY9-16">
          <mxGeometry x="1" width="20" height="20" relative="1" as="geometry">
            <mxPoint x="-27" y="7" as="offset" />
          </mxGeometry>
        </mxCell>
        <mxCell id="7CAKG3eBf-L-qqWDLFY9-27" style="edgeStyle=orthogonalEdgeStyle;rounded=0;orthogonalLoop=1;jettySize=auto;html=1;exitX=1;exitY=0.5;exitDx=0;exitDy=0;entryX=0;entryY=0.5;entryDx=0;entryDy=0;endArrow=none;endFill=0;" edge="1" parent="1" source="7CAKG3eBf-L-qqWDLFY9-19" target="7CAKG3eBf-L-qqWDLFY9-25">
          <mxGeometry relative="1" as="geometry" />
        </mxCell>
        <mxCell id="7CAKG3eBf-L-qqWDLFY9-19" value="&amp;lt;&amp;lt;flask&amp;gt;&amp;gt;&lt;div&gt;Insights Backedn&lt;/div&gt;" style="html=1;dropTarget=0;whiteSpace=wrap;" vertex="1" parent="1">
          <mxGeometry x="500" y="435" width="110" height="70" as="geometry" />
        </mxCell>
        <mxCell id="7CAKG3eBf-L-qqWDLFY9-20" value="" style="shape=module;jettyWidth=8;jettyHeight=4;" vertex="1" parent="7CAKG3eBf-L-qqWDLFY9-19">
          <mxGeometry x="1" width="20" height="20" relative="1" as="geometry">
            <mxPoint x="-27" y="7" as="offset" />
          </mxGeometry>
        </mxCell>
        <mxCell id="7CAKG3eBf-L-qqWDLFY9-23" style="edgeStyle=orthogonalEdgeStyle;rounded=0;orthogonalLoop=1;jettySize=auto;html=1;exitX=0.5;exitY=1;exitDx=0;exitDy=0;endArrow=none;endFill=0;" edge="1" parent="1" source="7CAKG3eBf-L-qqWDLFY9-21" target="7CAKG3eBf-L-qqWDLFY9-13">
          <mxGeometry relative="1" as="geometry" />
        </mxCell>
        <mxCell id="7CAKG3eBf-L-qqWDLFY9-24" style="edgeStyle=orthogonalEdgeStyle;rounded=0;orthogonalLoop=1;jettySize=auto;html=1;exitX=0.5;exitY=1;exitDx=0;exitDy=0;entryX=0.5;entryY=0;entryDx=0;entryDy=0;endArrow=none;endFill=0;" edge="1" parent="1" source="7CAKG3eBf-L-qqWDLFY9-21" target="7CAKG3eBf-L-qqWDLFY9-19">
          <mxGeometry relative="1" as="geometry">
            <Array as="points">
              <mxPoint x="414" y="360" />
              <mxPoint x="555" y="360" />
            </Array>
          </mxGeometry>
        </mxCell>
        <mxCell id="7CAKG3eBf-L-qqWDLFY9-21" value="&amp;lt;&amp;lt;React&amp;gt;&amp;gt;&lt;div&gt;Frontend&lt;/div&gt;" style="html=1;dropTarget=0;whiteSpace=wrap;" vertex="1" parent="1">
          <mxGeometry x="324" y="210" width="180" height="90" as="geometry" />
        </mxCell>
        <mxCell id="7CAKG3eBf-L-qqWDLFY9-22" value="" style="shape=module;jettyWidth=8;jettyHeight=4;" vertex="1" parent="7CAKG3eBf-L-qqWDLFY9-21">
          <mxGeometry x="1" width="20" height="20" relative="1" as="geometry">
            <mxPoint x="-27" y="7" as="offset" />
          </mxGeometry>
        </mxCell>
        <mxCell id="7CAKG3eBf-L-qqWDLFY9-25" value="Google&lt;div&gt;Gemini API&lt;/div&gt;" style="html=1;dropTarget=0;whiteSpace=wrap;" vertex="1" parent="1">
          <mxGeometry x="730" y="435" width="110" height="70" as="geometry" />
        </mxCell>
        <mxCell id="7CAKG3eBf-L-qqWDLFY9-26" value="" style="shape=module;jettyWidth=8;jettyHeight=4;" vertex="1" parent="7CAKG3eBf-L-qqWDLFY9-25">
          <mxGeometry x="1" width="20" height="20" relative="1" as="geometry">
            <mxPoint x="-27" y="7" as="offset" />
          </mxGeometry>
        </mxCell>
      </root>
    </mxGraphModel>
  </diagram>
</mxfile>
